<svg xmlns="http://www.w3.org/2000/svg" viewBox="0 0 69.25 86.62"><defs><style>.cls-1{fill:#878787;opacity:0.42;}</style></defs><g id="Layer_2" data-name="Layer 2"><g id="Primitive_Pink" data-name="Primitive Pink"><path class="cls-1" d="M5.53,29.52a12,12,0,0,1,.29-1.36,23.26,23.26,0,0,1,2.26-5.65c1.05-1.74,2.23-3.4,3.42-5a15.87,15.87,0,0,1,2-2.27,29.19,29.19,0,0,1,7-5c.41-.2.72-.35.49-.89,0-.11.19-.47.35-.5,1.23-.27,2.46-.5,3.7-.72.59-.1.88-.41.69-.91a10.33,10.33,0,0,0-2.41-4c-.42-.4-.83-.82-1.22-1.24A1.1,1.1,0,0,1,22,1.5c.14,0,.28-.09.4-.05.82.21,1.64.44,2.45.68A16.68,16.68,0,0,1,30.36,4.7c.18.13.5.08.75.11A2.81,2.81,0,0,0,31,4.22c-.47-1-.95-2-1.45-3.06-.12-.25-.34-.46-.47-.71a.52.52,0,0,1,0-.42s.25,0,.36,0a23.23,23.23,0,0,1,6.47,4.2c.83.83,1.62,1.7,2.43,2.56a4.34,4.34,0,0,0,2,.82c1.91.63,3.88,1.13,5.72,1.94a25.35,25.35,0,0,1,6.78,4.32,29.17,29.17,0,0,1,5.27,5.88,23.28,23.28,0,0,1,3.27,6.72c.06.25.35.44.53.65a3.8,3.8,0,0,0,.43-.47c.25-.36.52-.47.87-.14a.67.67,0,0,0,.27.19c.58.07.44.37.27.71-.44.92-.89,1.83-1.28,2.77-.07.19.14.48.22.72.21-.13.52-.2.62-.39.46-.86.86-1.75,1.28-2.63.14-.27.18-.57.67-.36s.28.55.15.81c-.76,1.53-1.55,3.05-2.31,4.58a1.74,1.74,0,0,0-.17.84c0,.18.17.36.27.53.15-.13.36-.23.44-.39.48-.93.92-1.87,1.37-2.81s.82-1.77,1.3-2.61c.08-.14.57-.15.8-.06s.91.23.64.8c-.45,1-1,1.93-1.47,2.9-.84,1.67-1.67,3.33-2.48,5a.88.88,0,0,0,.35,1.15,5.84,5.84,0,0,1-.46,9.79,4.75,4.75,0,0,1-2.18.7c-.87,0-1.06.46-.85,1.47a13.36,13.36,0,0,1,.29,5c-.28,1.69-.38,3.43-.74,5.1A33.16,33.16,0,0,1,59,64.33c-.18.51-.42,1-.64,1.49,0,.08-.16.12-.24.17a.79.79,0,0,1,0-.3c.11-.67.26-1.35.32-2,0-.21-.21-.45-.33-.68-.13.15-.33.27-.39.44-.17.51-.28,1-.46,1.57-.05.14-.26.22-.4.33a1.17,1.17,0,0,1-.12-.39A1.88,1.88,0,0,1,56.8,64c.27-.39.05-.59-.19-.72-.09,0-.43.22-.52.41-.3.62-.49,1.3-.81,1.91a40.2,40.2,0,0,1-2.4,4.19,22.35,22.35,0,0,1-3,3.4,22.7,22.7,0,0,1-7.86,4.9,2.15,2.15,0,0,0-1.34,1.33,40.54,40.54,0,0,1-1.89,3.64c-.26.48-.49,1-.75,1.44a2.88,2.88,0,0,1-.45.59.85.85,0,0,1-.34.1,1.8,1.8,0,0,1-.07-.38c.15-1.09.33-2.17.46-3.25,0-.16-.13-.35-.21-.53-.16.12-.38.2-.47.36-.86,1.57-1.69,3.14-2.54,4.71a1.46,1.46,0,0,1-.26.44.51.51,0,0,1-.42,0,.33.33,0,0,1-.1-.32A11.38,11.38,0,0,0,34,82.22a6.14,6.14,0,0,0-.15-1.35c-.1-.36-.36-.61-.79-.35a4.31,4.31,0,0,0-1,.61,2,2,0,0,0-.56,1.09c0,.79.08,1.6.11,2.4a2.54,2.54,0,0,1-.18.62,3.54,3.54,0,0,1-.51-.59c-.39-.77-.77-1.55-1.12-2.34s-.64-1.61-1-2.39c-.11-.22-.37-.37-.56-.55a2.33,2.33,0,0,0-.26.69,6.9,6.9,0,0,0,.11,3.13c0,.08-.08.32-.16.33a.44.44,0,0,1-.37-.16c-.26-.47-.5-1-.71-1.45-.44-1.06-.81-2.15-1.31-3.18a2.24,2.24,0,0,0-1-.88,26.05,26.05,0,0,1-5.23-3,24.31,24.31,0,0,1-4-3.84,31.07,31.07,0,0,1-3.13-4.9c-.34-.65-.56-1.36-.91-2a3.49,3.49,0,0,0-.78-.75c0,.33-.05.66,0,1s.11.52.13.79a1.86,1.86,0,0,1-.08.45c-.12-.14-.31-.25-.37-.41-.2-.47-.36-1-.53-1.46a1.36,1.36,0,0,0-.15-.43,1.1,1.1,0,0,0-.38-.23c-.05.12-.17.25-.16.36.1.77.23,1.54.34,2.31a1.21,1.21,0,0,1-.11.39,2,2,0,0,1-.24-.27A19.77,19.77,0,0,1,6.82,60a34.83,34.83,0,0,1-.57-4.67c-.09-1.35,0-2.7,0-4a10.6,10.6,0,0,1,.25-1.58c.1-.53-.22-.7-.63-.8a22.58,22.58,0,0,1-2.36-.58A5.08,5.08,0,0,1,.22,44.56c-.72-3,.26-6,3.85-7.16a1,1,0,0,0,.76-1c0-1.32,0-2.64.16-3.94.09-1,.35-1.91.54-2.93ZM17.68,57.6c.85.1,1.7.2,2.55.28,1.22.11,2.45.21,3.67.28,2.45.15,4.89.35,7.34.41,2.1,0,4.22-.06,6.32-.13,1.35,0,2.69-.18,4-.28,1.95-.14,3.91-.27,5.86-.42,1-.08,1.94-.16,2.9-.28,1.26-.17,2.51-.42,3.77-.55,1-.1,1.37-.28,1.38-1.23A21.44,21.44,0,0,0,55,48.82a2.31,2.31,0,0,1,.42-2.44,7.92,7.92,0,0,0,1.1-1.92,21.78,21.78,0,0,0,1.68-6.39.91.91,0,0,0-.31-.63c-.06-.06-.39,0-.5.16a6.83,6.83,0,0,0-.72.89c-.78,1.15-.69,2.51-.83,3.79a8,8,0,0,1-2,4.63,7.69,7.69,0,0,1-5.12,2.57,14.3,14.3,0,0,1-6.28-.5,9,9,0,0,1-6-6.16A25.32,25.32,0,0,0,35,39.4c-.56-1.16-1.42-1.24-2-.16a27,27,0,0,0-1.46,3.46,10.73,10.73,0,0,1-2.2,3.93,10.37,10.37,0,0,1-7.11,2.95,23,23,0,0,1-3.1-.13,7.23,7.23,0,0,1-4.6-2.07,9,9,0,0,1-2.65-6.75,3.67,3.67,0,0,0-1.24-2.85,1.85,1.85,0,0,0-.53-.25c-.07.18-.21.36-.19.54.06.78.16,1.56.27,2.34a13.89,13.89,0,0,0,2,5.55,2,2,0,0,1,.37,1.84,15.64,15.64,0,0,0-.85,5c0,1,.08,2.07.13,3.1a1.09,1.09,0,0,0,1,1c1.58.19,3.15.41,4.8.69ZM45.34,21.8c-.69-.1-1.37-.23-2.06-.27a15.59,15.59,0,0,0-6,.69,7.24,7.24,0,0,0-3.39,2.32c-.14.19-.45.24-.69.35a3.52,3.52,0,0,1-.11-.62c0-.68-.22-.82-.83-.5s-1.28.76-1.93,1.12a2.31,2.31,0,0,1-.53.15,1.49,1.49,0,0,1,.13-.57c.32-.41.7-.78,1-1.19.12-.15.11-.38.17-.57a2.19,2.19,0,0,0-.54.08c-.26.13-.47.34-.72.47a5.16,5.16,0,0,1-.67.2c.09-.21.17-.42.27-.63,0,0,.06-.07.09-.1.45-.46.37-.81-.26-.92A14.52,14.52,0,0,0,27,21.53a17.07,17.07,0,0,0-5.48.64,16.44,16.44,0,0,0-6.38,3.58,16,16,0,0,0-3.54,4.57,17.77,17.77,0,0,0-1.13,2.83c-.11.35-.16.84.56.74s1.46-.1,2.19-.16c2.1-.18,4.19-.43,6.3-.55a25.29,25.29,0,0,1,8.21.83c1.49.42,3,.89,4.46,1.25a6.2,6.2,0,0,0,2.47.26c1.6-.31,3.15-.85,4.72-1.3a24.44,24.44,0,0,1,6.16-1c1.39,0,2.77.06,4.16.13s3,.16,4.51.28c.83.06,1.66.19,2.49.27.23,0,.48,0,.72,0a4.65,4.65,0,0,0-.06-.75,12.45,12.45,0,0,0-2.69-5.2,29.71,29.71,0,0,0-3.25-3.29,16.53,16.53,0,0,0-6.07-2.83ZM30,74.31A27.71,27.71,0,0,0,33,75c.59.08.56.22.37.64a6.92,6.92,0,0,0-.28.88c.34-.11.68-.21,1-.34.12,0,.19-.2.3-.29s.23-.16.35-.24a3.77,3.77,0,0,1,0,.47c-.05.24-.13.48-.2.72a5,5,0,0,0,.71-.27,1.57,1.57,0,0,0,.37-.4c.66-.87,1.19-1.88,2.43-2.09a9.76,9.76,0,0,0,1.22-.25,17.45,17.45,0,0,0,6.19-3.36,19.14,19.14,0,0,0,4.77-5.74,20.8,20.8,0,0,0,2-5.51c.1-.49-.22-.67-.62-.6-1.22.2-2.43.45-3.64.67-.81.15-1.61.33-2.42.43-1.08.13-2.17.19-3.25.29-2,.18-4,.45-6,.54-2.18.09-4.37,0-6.55,0a18.71,18.71,0,0,1-2.12-.14c-1.51-.16-3-.37-4.54-.55-.87-.1-1.75-.13-2.62-.29-1.53-.29-3.05-.65-4.57-1a.65.65,0,0,0-.69.66c.09.43.19.86.3,1.28a19.68,19.68,0,0,0,3,6.39A19.13,19.13,0,0,0,30,74.31ZM53.55,43.49a9.94,9.94,0,0,0,.54-4.25,4.25,4.25,0,0,0-1.26-2.76,5.54,5.54,0,0,0-3.59-1.43c-3-.12-6.11-.34-9,1.05a3.89,3.89,0,0,0-2.09,2.15,4.7,4.7,0,0,0,.22,3.27,12.18,12.18,0,0,0,2.22,4.27,6.48,6.48,0,0,0,4.79,2.11,27.84,27.84,0,0,0,3.16-.14,5.88,5.88,0,0,0,3.14-1.4,7.59,7.59,0,0,0,1.88-2.87ZM27.5,36a20.48,20.48,0,0,0-3.94-.93,20.55,20.55,0,0,0-6.06.22,4.46,4.46,0,0,0-3.49,3,8.42,8.42,0,0,0,.74,6.2,6.13,6.13,0,0,0,5.75,3.4c.94,0,1.88-.08,2.82-.14a5.94,5.94,0,0,0,3.45-1.5,9.44,9.44,0,0,0,2.45-3.76A11.94,11.94,0,0,0,30,39.72,3.83,3.83,0,0,0,27.5,36ZM12,19.48a13.77,13.77,0,0,0-1.46,2.06,28.63,28.63,0,0,0-1.19,3.29c-.05.13.11.32.17.48.22-.1.52-.15.64-.32.82-1.22,1.61-2.46,2.4-3.7a17.88,17.88,0,0,1,3.39-3.56c.65-.57,1.33-1.09,2-1.66.13-.12.14-.38.21-.57a2,2,0,0,0-.67-.06A8.57,8.57,0,0,0,16.2,16,14.14,14.14,0,0,0,12,19.48ZM3.64,40.19a9.48,9.48,0,0,0-.88,2.29,4.41,4.41,0,0,0,3.08,4.81,2.89,2.89,0,0,0,.93,0c0-.25-.06-.52-.12-.77a8.73,8.73,0,0,0-.43-1.43c-.41-.9-.36-2.09-1.56-2.5a.49.49,0,0,1-.24-.37c0-.62,0-1.24,0-1.85a2.23,2.23,0,0,0-.16-.56,5.85,5.85,0,0,0-.6.37Zm58.62,6.25c.13-.13.25-.27.39-.39a4,4,0,0,0,1.28-3.62c0-.14-.25-.25-.38-.37a8,8,0,0,0-1.4,1.59,15.7,15.7,0,0,0-.87,2.64,4.22,4.22,0,0,0-.1.62,6.85,6.85,0,0,0,.76-.16c.09,0,.16-.16.32-.31ZM12.9,37c-.07.16-.2.32-.19.47a4.47,4.47,0,0,0,.14.8,3.16,3.16,0,0,0,.59-.56,7.37,7.37,0,0,1,2.07-2.5,2.21,2.21,0,0,0,.6-.83c-.46-.43-.84,0-1.21.22a5.46,5.46,0,0,0-2,2.4ZM.76,41.39l.18.35a2.44,2.44,0,0,0,.65-.39c.62-.76,1.21-1.54,1.8-2.32a3.26,3.26,0,0,0,.28-.63,1.91,1.91,0,0,0-.74.14A5.88,5.88,0,0,0,.76,41.39ZM9.88,26.78c-.15-.42-.41-.67-.85-.38-.12.07-.22.38-.16.46.29.42.63.38,1-.08Zm57.18-5.09a10.1,10.1,0,0,1,1.66.78.93.93,0,0,1,.26.71c0,1-.06,2-.14,3a2.44,2.44,0,0,1-.28.93.6.6,0,0,1-1.14,0,.93.93,0,0,0-1.08-.59.8.8,0,0,1-1-.54c-.14-.4-.44-.47-.82-.44s-.83.08-1-.39.15-.74.46-1l3.07-2.52ZM68.75,20c.2.1.5.23.5.36a1.31,1.31,0,0,1-.33.69s-.38-.08-.5-.2c-.4-.43.14-.56.33-.85ZM32.81,49.84c.1.2.25.38.21.51-.08.31-.18.72-.41.84-.64.35-1.18-.09-1.59-.51a1.22,1.22,0,0,1-.37-1.27.66.66,0,0,1,1-.48,5.81,5.81,0,0,1,1.21.91Zm3.47-.94c.86.05,1.1.42.84,1.19a1.48,1.48,0,0,1-1.49,1.17,1.06,1.06,0,0,1-.72-.51.93.93,0,0,1,.15-.81,7,7,0,0,1,1.22-1Zm-12-18.57c1.27.56,2.5,1.08,3.72,1.63.14.06.21.28.32.42a1.35,1.35,0,0,1-.51.08c-.81-.18-1.61-.43-2.42-.59-1-.21-2.1-.36-3.15-.52a17.11,17.11,0,0,0-6,.62c-.15,0-.33-.13-.49-.2.07-.12.11-.29.21-.34a10.3,10.3,0,0,1,2.08-.9A26.53,26.53,0,0,1,22,30a9.31,9.31,0,0,1,2.27.36Zm20.18,1.16c-1.05.23-2,.46-3,.7-.34.08-.67.21-1,.27a1.26,1.26,0,0,1-.48-.12c.1-.17.15-.41.3-.5A16.52,16.52,0,0,1,41.91,31a10.27,10.27,0,0,1,8.43,0,7.52,7.52,0,0,1,1,.48c.11.06.16.23.24.35-.13.06-.27.19-.4.19-.31,0-.62-.1-.93-.14-1.44-.19-2.88-.39-4.33-.54a8.12,8.12,0,0,0-1.49.13ZM44.25,68.1c-.43.05-.85.08-.94-.45-.07-.37,0-.71.46-.76a.86.86,0,0,1,.67.23c.29.33.18.67-.19,1Zm1.54-2.6a3.13,3.13,0,0,1,0,.6,1.24,1.24,0,0,1-.55,0c-.08,0-.13-.39-.07-.43a1.2,1.2,0,0,1,.59-.14Zm-1-26.12a9,9,0,0,1,.54-.94.76.76,0,0,1,1.16-.18,1,1,0,0,1,0,.92,1,1,0,0,0,.36,1.5,1,1,0,0,1,.39,1.22,3.32,3.32,0,0,1-1,1.48c-.36.27-.83-.05-1.09-.53a4.68,4.68,0,0,1-.38-3.47ZM20,39.91c.07-1,.61-1.81,1.23-1.82s1.05.46.73,1.09a1,1,0,0,0,.23,1.42,1.18,1.18,0,0,1,.23,1.59,3.11,3.11,0,0,1-.35.76,1.46,1.46,0,0,1-.7.45.74.74,0,0,1-1-.42A4.38,4.38,0,0,1,20,39.91Z"/></g></g></svg>